{"title":"UFC.126.ESPN.HDTV.XviD-FreaK","uid":6154141,"size":1550221358,"categoryP":"video","categoryS":"tv_shows","magnet":"?xt=urn:btih:67c05613bb0c267d14f8ad055e4c1f8115bf5f1d&amp;dn=UFC.126.ESPN.HDTV.XviD-FreaK&amp;tr=udp%3A%2F%2Ftracker.openbittorrent.com%3A80&amp;tr=udp%3A%2F%2Fopen.demonii.com%3A1337&amp;tr=udp%3A%2F%2Ftracker.coppersurfer.tk%3A6969&amp;tr=udp%3A%2F%2Fexodus.desync.com%3A6969","seeders":1,"leechers":0,"uploader":"SAFCukO09","files":3,"time":1296986067,"description":"[center][img]http://img687.imageshack.us/img687/4619/ufc126poster1500x719.jpg[/img][/center]\n\n[center]General Information\n\nFormat : AVI\nFormat/Info : Audio Video Interleave\nFile size : 1.44 GiB\nDuration : 2h 51mn\nOverall bit rate : 1 205 Kbps\nVideo\nID : 0\nFormat : MPEG-4 Visual\nFormat profile : Advanced Simple@L5\nFormat settings, BVOP : Yes\nFormat settings, QPel : No\nFormat settings, GMC : No warppoints\nFormat settings, Matrix : Default (H.263)\nMuxing mode : Packed bitstream\nCodec ID : XVID\nCodec ID/Hint : XviD\nDuration : 2h 51mn\nBit rate : 1 067 Kbps\nWidth : 624 pixels\nHeight : 352 pixels\nDisplay aspect ratio : 16:9\nFrame rate : 25.000 fps\nResolution : 8 bits\nColorimetry : 4:2:0\nScan type : Progressive\nBits/(Pixel*Frame) : 0.194\nStream size : 1.28 GiB (89%)\nWriting library : XviD 1.2.1 (UTC 2008-12-04)\nAudio\nID : 1\nFormat : MPEG Audio\nFormat version : Version 1\nFormat profile : Layer 3\nMode : Joint stereo\nFormat_Settings_ModeExtension : MS Stereo\nCodec ID : 55\nCodec ID/Hint : MP3\nDuration : 2h 51mn\nBit rate mode : Constant\nBit rate : 128 Kbps\nChannel(s) : 2 channels\nSampling rate : 48.0 KHz\nStream size : 157 MiB (11%)\nAlignment : Aligned on interleaves\nInterleave, duration : 40 ms (1.00 video frame)\nInterleave, preload duration : 480 ms[/center]","torrent":{"xt":"urn:btih:67c05613bb0c267d14f8ad055e4c1f8115bf5f1d","amp;dn":"UFC.126.ESPN.HDTV.XviD-FreaK","amp;tr":["udp%3A%2F%2Ftracker.openbittorrent.com%3A80","udp%3A%2F%2Fopen.demonii.com%3A1337","udp%3A%2F%2Ftracker.coppersurfer.tk%3A6969","udp%3A%2F%2Fexodus.desync.com%3A6969"],"infoHash":"67c05613bb0c267d14f8ad055e4c1f8115bf5f1d","infoHashBuffer":{"type":"Buffer","data":[103,192,86,19,187,12,38,125,20,248,173,5,94,76,31,129,21,191,95,29]},"announce":[],"urlList":[]}}